<svg width="720" height="720" viewBox="0 0 720 720" fill="none" xmlns="http://www.w3.org/2000/svg">
<g style="mix-blend-mode:plus-lighter">
<path d="M360 0C161.178 0 0 161.176 0 360C0 558.824 161.176 720 360 720C558.824 720 720 558.824 720 360C720 161.176 558.822 0 360 0ZM360 606.491C311.247 606.491 263.589 592.034 223.052 564.948C182.516 537.863 150.921 499.365 132.264 454.323C113.607 409.281 108.726 359.718 118.237 311.902C127.748 264.086 151.225 220.164 185.699 185.69C220.172 151.217 264.094 127.74 311.91 118.229C359.727 108.718 409.289 113.599 454.331 132.256C499.373 150.913 537.871 182.507 564.957 223.044C592.042 263.581 606.499 311.239 606.499 359.992C606.499 425.367 580.529 488.066 534.301 534.293C488.074 580.521 425.376 606.491 360 606.491Z" fill="#E81C5A"/>
</g>
</svg>

