<svg fill="none" xmlns="http://www.w3.org/2000/svg" viewBox="0 0 498 380">
  <path
    d="M3.6 148.84a3.57 3.57 0 1 0 0-7.14 3.57 3.57 0 0 0 0 7.14m0 35.31a3.57 3.57 0 1 0 0-7.14 3.57 3.57 0 0 0 0 7.14m0 35.27a3.57 3.57 0 1 0 0-7.14 3.57 3.57 0 0 0 0 7.14m3.53 31.74a3.57 3.57 0 1 1-7.15 0 3.57 3.57 0 0 1 7.15 0m0 35.26a3.57 3.57 0 1 1-7.15.01 3.57 3.57 0 0 1 7.15 0M28.56 43a3.57 3.57 0 1 0-.02-7.14 3.57 3.57 0 0 0 .02 7.14m3.56 31.73a3.57 3.57 0 1 1-7.14.01 3.57 3.57 0 0 1 7.14 0m0 35.26a3.57 3.57 0 1 1-7.14 0 3.57 3.57 0 0 1 7.14 0m-3.56 38.84a3.57 3.57 0 1 0-.02-7.14 3.57 3.57 0 0 0 .02 7.14m0 35.31a3.57 3.57 0 1 0-.02-7.14 3.57 3.57 0 0 0 .02 7.14m0 35.27a3.57 3.57 0 1 0-.02-7.14 3.57 3.57 0 0 0 .02 7.14m3.56 31.74a3.57 3.57 0 1 1-7.14 0 3.57 3.57 0 0 1 7.14 0m0 35.26a3.57 3.57 0 1 1-7.14.01 3.57 3.57 0 0 1 7.14 0M57.07 4.15a3.57 3.57 0 1 1-7.15.01 3.57 3.57 0 0 1 7.15 0m0 35.26a3.57 3.57 0 1 1-7.15.01 3.57 3.57 0 0 1 7.15 0m0 35.3a3.57 3.57 0 1 1-7.15.01 3.57 3.57 0 0 1 7.15 0m0 35.26a3.57 3.57 0 1 1-7.15 0 3.57 3.57 0 0 1 7.15 0m0 35.27a3.57 3.57 0 1 1-7.15 0 3.57 3.57 0 0 1 7.15 0M82.01 4.15a3.57 3.57 0 1 1-7.14.01 3.57 3.57 0 0 1 7.14 0M82 39.42a3.57 3.57 0 1 1-7.14.01 3.57 3.57 0 0 1 7.15 0M82 74.73a3.57 3.57 0 1 1-7.14.01 3.57 3.57 0 0 1 7.15 0M82 110a3.57 3.57 0 1 1-7.13 0 3.57 3.57 0 0 1 7.14 0M82 145.27a3.57 3.57 0 1 1-7.13 0 3.57 3.57 0 0 1 7.14 0M103.44 7.73a3.57 3.57 0 1 0-.02-7.14 3.57 3.57 0 0 0 .02 7.14m0 35.27a3.57 3.57 0 1 0-.02-7.14 3.57 3.57 0 0 0 .02 7.14m3.51 31.73a3.57 3.57 0 1 1-7.14.01 3.57 3.57 0 0 1 7.14 0m0 35.26a3.57 3.57 0 1 1-7.14 0 3.57 3.57 0 0 1 7.14 0m-3.51 38.84a3.57 3.57 0 1 0-.02-7.14 3.57 3.57 0 0 0 .02 7.14m0 35.31a3.57 3.57 0 1 0-.02-7.14 3.57 3.57 0 0 0 .02 7.14m0 35.27a3.57 3.57 0 1 0-.02-7.14 3.57 3.57 0 0 0 .02 7.14m291.16-58.26a3.57 3.57 0 1 1 0 7.14 3.57 3.57 0 0 1 0-7.14m0-35.31a3.57 3.57 0 1 1 0 7.14 3.57 3.57 0 0 1 0-7.14m0-35.27a3.57 3.57 0 1 1 0 7.14 3.57 3.57 0 0 1 0-7.14m3.53-31.73a3.57 3.57 0 1 0-7.15-.01 3.57 3.57 0 0 0 7.15 0m21.43 314.01a3.57 3.57 0 1 1-.02 7.14 3.57 3.57 0 0 1 .02-7.14m0-35.31a3.57 3.57 0 1 1-.02 7.14 3.57 3.57 0 0 1 .02-7.14m0-35.27a3.57 3.57 0 1 1-.02 7.14 3.57 3.57 0 0 1 .02-7.14m0-35.27a3.57 3.57 0 1 1-.02 7.14 3.57 3.57 0 0 1 .02-7.14m3.56-31.73a3.57 3.57 0 1 0-7.14-.01 3.57 3.57 0 0 0 7.14 0m0-35.26a3.57 3.57 0 1 0-7.14 0 3.57 3.57 0 0 0 7.14 0m-3.56-38.84a3.57 3.57 0 1 1-.02 7.14 3.57 3.57 0 0 1 .02-7.14m0-35.31a3.57 3.57 0 1 1-.02 7.14 3.57 3.57 0 0 1 .02-7.14m0-35.27a3.57 3.57 0 1 1-.02 7.14 3.57 3.57 0 0 1 .02-7.14m28.51 285.84a3.57 3.57 0 1 0-7.15 0 3.57 3.57 0 0 0 7.15 0m0-35.31a3.57 3.57 0 1 0-7.15 0 3.57 3.57 0 0 0 7.15 0m0-35.26a3.57 3.57 0 1 0-7.15-.01 3.57 3.57 0 0 0 7.15 0m0-35.26a3.57 3.57 0 1 0-7.15-.01 3.57 3.57 0 0 0 7.15 0m0-35.3a3.57 3.57 0 1 0-7.15-.01 3.57 3.57 0 0 0 7.15 0m0-35.26a3.57 3.57 0 1 0-7.15 0 3.57 3.57 0 0 0 7.15 0m24.94 105.85a3.57 3.57 0 1 0-7.14-.01 3.57 3.57 0 0 0 7.14 0m-.01-35.26a3.57 3.57 0 1 0-7.14-.01 3.57 3.57 0 0 0 7.15 0m-.01-35.3a3.57 3.57 0 1 0-7.13-.01 3.57 3.57 0 0 0 7.14 0M473 200a3.57 3.57 0 1 0-7.13-.01 3.57 3.57 0 0 0 7.14.01m21.43 102.27a3.57 3.57 0 1 1-.02 7.14 3.57 3.57 0 0 1 .01-7.14m.01-35.27a3.57 3.57 0 1 1-.02 7.14 3.57 3.57 0 0 1 .01-7.14m3.52-31.73a3.57 3.57 0 1 0-7.14-.01 3.57 3.57 0 0 0 7.14 0"
    fill="#fff" />
</svg>
